<svg width="426" height="106" viewBox="0 0 426 106" fill="none" xmlns="http://www.w3.org/2000/svg">
<g clip-path="url(#clip0_384_633)">
<path d="M0 101.107V86.6373L42.1256 25.9398H0.174073V4.89294H72.9365V19.3626L30.8109 80.0602H72.7624V101.107H0Z" fill="black"/>
<path d="M131.995 79.0458C129.009 79.8709 125.811 80.5499 124.891 80.5499C122.737 80.5499 110.112 68.553 110.112 66.5158C110.112 64.4348 113.617 54.5701 116.143 49.5318C124.715 32.4382 140.947 17.2359 157.004 11.2484C158.932 10.5255 159.049 10.6423 161.319 15.4104C164.452 21.982 170.899 28.393 177.654 31.6423C180.465 32.9932 182.911 34.2126 183.086 34.344C183.612 34.7383 179.596 42.5148 176.201 47.6844C171.746 54.4824 166.438 60.0975 159.552 65.3037C152.711 70.488 139.969 76.8406 131.995 79.0458Z" fill="black"/>
<path d="M152.462 99.3962C145.978 100.616 142.97 100.937 142.97 100.404C142.97 100.126 144.437 98.9727 146.226 97.8409C148.023 96.7091 151.133 93.9856 153.148 91.7804C157.384 87.1438 159.034 82.6604 159.034 75.7675V71.255L164.408 66.8082C172.79 59.8715 179.114 52.0147 183.809 42.6903C185.094 40.1419 186.328 38.2362 186.554 38.4552C187.671 39.5797 188.949 48.1593 188.957 54.658C188.979 65.7129 186.35 74.1027 180.362 82.1347C176.66 87.0999 174.382 89.181 168.636 92.8611C163.349 96.2491 158.274 98.2936 152.462 99.3962Z" fill="#FDC115"/>
<path d="M99.0788 38.4917C96.8298 40.266 93.6243 43.7928 91.9595 46.3411L88.9365 50.9632V47.5386C88.9365 35.3446 96.2968 22.2305 107.366 14.7169C115.873 8.94119 125.84 6.07158 137.421 6.07158C144.043 6.07158 152.462 7.26909 152.462 8.20372C152.462 8.46659 150.411 9.69328 147.899 10.9346C141.561 14.0598 132.609 20.9235 126.541 27.2834L121.43 32.6502L115.946 32.7524C108.892 32.8839 104.183 34.4903 99.0788 38.4917Z" fill="#FDC115"/>
<path d="M186.386 25.0562C185.707 27.6702 184.919 30.0507 184.641 30.3573C183.707 31.3869 175.039 26.3924 171.162 22.6028C167.475 18.9957 164.072 13.9793 163.108 10.73C162.743 9.51062 163.079 9.01409 164.671 8.37153C168.3 6.91117 176.303 5.34858 181.114 5.15874C188.037 4.88857 188.519 5.49463 188.022 13.7238C187.803 17.3455 187.065 22.4421 186.386 25.0562Z" fill="black"/>
<path d="M96.9608 59.674C92.7404 61.1417 91.3603 61.1271 90.4987 59.5864C89.659 58.0822 92.0467 53.0002 96.3183 47.2171C101.247 40.5433 106.3 37.5787 113.821 36.9508C116.595 36.7171 118.874 36.7609 118.874 37.053C118.874 37.3451 117.537 39.835 115.894 42.5878C114.259 45.3479 111.805 50.1671 110.44 53.3068L107.957 59.0096L104.095 58.7686C101.86 58.6299 98.8593 59.0096 96.9608 59.674Z" fill="black"/>
<path d="M136.596 99.0675C132.156 101.316 131.776 101.368 130.52 99.8561C129.732 98.9069 129.812 98.0599 130.951 94.9274C131.762 92.693 132.288 89.4291 132.244 86.9757L132.156 82.8136L137.019 81.2292C139.692 80.3529 144.752 78.1989 148.271 76.4465C151.783 74.6867 154.872 73.2483 155.128 73.2483C156.369 73.2483 154.638 82.2003 152.718 85.7344C150.469 89.8745 143.715 95.4604 136.596 99.0675Z" fill="black"/>
<path d="M104.533 96.9862C97.7792 98.4174 93.3981 98.3955 92.8359 96.9351C92.0911 94.9928 93.2886 86.5373 94.9169 82.1635C95.7712 79.8781 97.3557 77.1326 98.4291 76.0519C100.678 73.8103 105.797 72.1892 108.506 72.8756L110.353 73.3356L108.082 74.7157C104.767 76.731 103.46 79.199 103 84.2883L102.584 88.8082L106.417 88.3555C111.222 87.7859 114.515 85.9239 116.034 82.9156C116.684 81.6378 117.421 80.7981 117.677 81.0536C118.56 81.9445 118.144 87.932 117.041 90.0495C115.545 92.9483 110.565 95.7084 104.533 96.9862Z" fill="#FDC115"/>
<path d="M149.03 47.0348C154.733 50.6126 162.685 46.1293 162.685 39.3313C162.685 32.9349 156.712 28.8824 150.169 30.8466C143.145 32.9422 142.451 42.9019 149.03 47.0348Z" fill="white"/>
<path d="M284.101 4.89294V101.107H263.377L230.326 50.5571H229.79V101.107H204.957V4.89294H226.038L258.553 55.255H259.268V4.89294H284.101Z" fill="black"/>
<path d="M324.93 4.89294V101.107H300.101V4.89294H324.93Z" fill="black"/>
<path d="M426.281 41.2933H401.209C401.031 39.1593 400.557 37.2234 399.787 35.4857C399.046 33.748 398.009 32.2542 396.675 31.0043C395.371 29.7239 393.785 28.7483 391.918 28.0776C390.051 27.3764 387.932 27.0258 385.562 27.0258C381.412 27.0258 377.901 28.0624 375.026 30.1354C372.181 32.2085 370.018 35.1809 368.536 39.0526C367.084 42.9244 366.357 47.5735 366.357 53C366.357 58.7314 367.098 63.5329 368.58 67.4047C370.092 71.2459 372.27 74.1421 375.115 76.0932C377.96 78.0138 381.383 78.9742 385.384 78.9742C387.666 78.9742 389.711 78.6845 391.518 78.1053C393.326 77.4956 394.897 76.6267 396.23 75.4987C397.564 74.3708 398.646 73.0141 399.476 71.4288C400.335 69.8131 400.913 67.9992 401.209 65.9871L426.281 66.17C425.985 70.1332 424.903 74.1726 423.036 78.2882C421.169 82.3734 418.517 86.1536 415.079 89.629C411.671 93.074 407.448 95.8482 402.409 97.9517C397.371 100.055 391.518 101.107 384.85 101.107C376.493 101.107 368.995 99.2626 362.357 95.5738C355.748 91.885 350.517 86.4585 346.664 79.2943C342.841 72.13 340.93 63.3653 340.93 53C340.93 42.5738 342.886 33.7938 346.798 26.66C350.71 19.4958 355.985 14.0845 362.623 10.4262C369.262 6.73735 376.671 4.89294 384.85 4.89294C390.6 4.89294 395.89 5.70082 400.72 7.31659C405.551 8.93235 409.789 11.295 413.434 14.4046C417.079 17.4837 420.013 21.2792 422.236 25.7912C424.459 30.3031 425.807 35.4705 426.281 41.2933Z" fill="black"/>
</g>
<defs>
<clipPath id="clip0_384_633">
<rect width="426" height="106" fill="white"/>
</clipPath>
</defs>
</svg>
